<svg xmlns="http://www.w3.org/2000/svg" viewBox="0 0 226.8 187.6"><g id="Layer_2" data-name="Layer 2"><g id="Слой_1" data-name="Слой 1"><path d="M58.6,86.4c0,1.3-.1,2.7-.2,4.2a24.2,24.2,0,0,1-.7,4.7,25.2,25.2,0,0,1-1.3,4.7,13.3,13.3,0,0,1-2.1,3.9,10.6,10.6,0,0,1-3.2,2.8,9.4,9.4,0,0,1-4.5,1.1H43.3a27.1,27.1,0,0,0-4.7-.4H33.4l4.2-1.9V66.8L33.4,65v-.2H44.1c3.1,0,5.6.6,7.5,2A13.6,13.6,0,0,1,56,71.9a21.3,21.3,0,0,1,2,6.9A49.6,49.6,0,0,1,58.6,86.4ZM46.8,106.8c2.7,0,4.7-1.8,5.8-5.2a32.6,32.6,0,0,0,1.3-6.1,72,72,0,0,0,.4-8.6c0-1.4,0-2.9-.1-4.8a34.1,34.1,0,0,0-.5-5.5,29.3,29.3,0,0,0-1.3-5.3A7.7,7.7,0,0,0,50,67.4a4.3,4.3,0,0,0-2.6-1.3,19,19,0,0,0-3.5-.3H41.4v35.8a4.9,4.9,0,0,0,1.5,3.8A5.8,5.8,0,0,0,46.8,106.8Z" style="fill:#fff"/><path d="M62.2,86.1a24.3,24.3,0,0,1,1.5-8.6,22,22,0,0,1,4.2-6.9,19.4,19.4,0,0,1,6.6-4.7,19,19,0,0,1,8.3-1.7,20,20,0,0,1,8.6,1.7A20.4,20.4,0,0,1,98,70.6a20,20,0,0,1,4.2,6.9,23.2,23.2,0,0,1,1.5,8.4,25,25,0,0,1-1.5,8.8,20.1,20.1,0,0,1-10.9,11.5,21.1,21.1,0,0,1-8.5,1.6,19.1,19.1,0,0,1-8.4-1.7,20.7,20.7,0,0,1-6.5-4.8,22,22,0,0,1-4.2-6.9A23.4,23.4,0,0,1,62.2,86.1Zm5.7,7.3a30.8,30.8,0,0,0,3.2,4.8,24.6,24.6,0,0,0,4.1,3.8,18.9,18.9,0,0,0,4.9,2.5,18.1,18.1,0,0,0,5.8.9,14.3,14.3,0,0,0,6-1.2,12.5,12.5,0,0,0,4.5-3.3A16.9,16.9,0,0,0,99.2,96a19.8,19.8,0,0,0,.9-6,28.8,28.8,0,0,0-.6-5.9,27.3,27.3,0,0,0-1.9-5.7,30.1,30.1,0,0,0-3.2-5,16.4,16.4,0,0,0-4.3-4,13.2,13.2,0,0,0-4.7-2.2,21.2,21.2,0,0,0-5.2-.6,17,17,0,0,0-6.1,1.1,13.6,13.6,0,0,0-4.6,3.2,16.6,16.6,0,0,0-2.9,4.8,19.9,19.9,0,0,0-1,6,38.6,38.6,0,0,0,.5,6.1A21.4,21.4,0,0,0,67.9,93.4Z" style="fill:#fff"/><path d="M114.1,66.8v35.8c0,2.4,1,3.6,3.1,3.6h3a2.8,2.8,0,0,0,2.1-.7,5.2,5.2,0,0,0,1.3-2.4l4.2-11.6h.1l-1.6,16.3-3.5-.6H106.1l4.2-1.9V66.8L106.1,65v-.2h12.2V65Z" style="fill:#fff"/><path d="M150.4,64.2a21.7,21.7,0,0,1,8.4,1.5,37.2,37.2,0,0,1,8.6,5.8V85.3h-.2a47.4,47.4,0,0,0-2.7-8.9,16.2,16.2,0,0,0-4-5.8,15.5,15.5,0,0,0-11.1-4.7,14.5,14.5,0,0,0-13,7.6,17.7,17.7,0,0,0-2.2,9.2,28.4,28.4,0,0,0,.5,5.8,23.7,23.7,0,0,0,1.8,5.5,20.7,20.7,0,0,0,3.1,4.8,16.2,16.2,0,0,0,4.5,3.6,26.5,26.5,0,0,0,4.7,2,19.8,19.8,0,0,0,5.2.7,16.7,16.7,0,0,0,7.6-1.6,16.1,16.1,0,0,0,5.8-5.1h.8a20.4,20.4,0,0,1-3.1,4,16.8,16.8,0,0,1-4,3,18.3,18.3,0,0,1-4.6,1.8,22.8,22.8,0,0,1-13.6-1,19.6,19.6,0,0,1-6.6-4.6,22,22,0,0,1-4.2-6.9,23.7,23.7,0,0,1-1.5-8.5,23.4,23.4,0,0,1,1.5-8.3,20.3,20.3,0,0,1,4-7,19.8,19.8,0,0,1,6.2-4.9A17.9,17.9,0,0,1,150.4,64.2Z" style="fill:#fff"/><path d="M192.6,76.6h-.2l-4-7.9a7.6,7.6,0,0,0-.7-1.3,2.4,2.4,0,0,0-.8-.9,3.1,3.1,0,0,0-1-.5l-1.6-.2h-5.8V84.6h5.3a5.3,5.3,0,0,0,2.8-.6,11.1,11.1,0,0,0,1.9-2.2l1.2-2.7h.2V91.2h-.2l-1.2-2.7a6.8,6.8,0,0,0-2-2.1,4.1,4.1,0,0,0-2.7-.7h-5.3v16.7a5.3,5.3,0,0,0,.5,2.6,2.2,2.2,0,0,0,2.2,1.2H185a3.4,3.4,0,0,0,2.5-.8,8.2,8.2,0,0,0,1.3-2.3l4.3-10h.2l-1.9,14.6-3.9-.6h-17l4.2-1.9V66.8L170.5,65v-.2h16.6l3.9-.6Z" style="fill:#fff"/><path d="M26.9,153.9l13.8-24.2a9.3,9.3,0,0,0,1.7-4.2,1.7,1.7,0,0,0-.8-1.6l-3.1-1.2v-.2H50.9c3.8,0,6.6,1.1,8.3,3.2s2.6,5,2.6,8.7a13.1,13.1,0,0,1-1.5,6.1,9.6,9.6,0,0,1-4.6,4.3,23.5,23.5,0,0,1,1,2.7c.4,1.2.8,2.4,1.4,3.9s1.1,2.8,1.7,4.4a40.8,40.8,0,0,0,1.9,4.2,27.2,27.2,0,0,0,2,3.5,6.5,6.5,0,0,0,1.8,2.1v.2a12.8,12.8,0,0,1-3.1-1.5,17,17,0,0,1-2.4-2.2,16.4,16.4,0,0,1-2-2.6l-1.7-3c-1.2-2.6-2.7-6.1-4.4-10.5a8,8,0,0,1-3-.6,6,6,0,0,1-2.3-1.9v20l5.3,1.3v.2H38.5v-.2l4.2-1.3V151.8H29.3l-1.1,1.9a12.8,12.8,0,0,0-2,5.9,6,6,0,0,0,.7,3,6.2,6.2,0,0,0,2.9,2.1v.3h-12v-.3a23.1,23.1,0,0,0,5.1-4.8A48.1,48.1,0,0,0,26.9,153.9Zm15.8-25.7L29.8,150.8H42.7Zm9,16.8a4.8,4.8,0,0,0,4.4-2.9l.7-1.4a7.5,7.5,0,0,0,.5-1.6,5.8,5.8,0,0,0,.3-1.9,15.5,15.5,0,0,0,.1-2.3c0-7.6-2.2-11.3-6.7-11.3H46.5v13.7a12.3,12.3,0,0,0,.2,2.7,10.3,10.3,0,0,0,.7,2.5,5.8,5.8,0,0,0,1.7,1.8A4,4,0,0,0,51.7,145Z" style="fill:#fff"/><path d="M82.8,127.1h-.2v27.6a20.6,20.6,0,0,0,.3,3.9,8.4,8.4,0,0,0,1.1,2.7,6.7,6.7,0,0,0,2.2,1.9,28.4,28.4,0,0,0,3.4,1.5v.3h-12v-.3a9.4,9.4,0,0,0,3.1-4.1,13.6,13.6,0,0,0,.9-5.1V124L77,122.7v-.2h7.5l15.4,32.6h.3V132.8a22.5,22.5,0,0,0-.3-4,6.8,6.8,0,0,0-1.1-2.6,5.5,5.5,0,0,0-2.1-1.9,24.4,24.4,0,0,0-3.5-1.5v-.3h12v.3a9.9,9.9,0,0,0-3,4.1,11.9,11.9,0,0,0-1,5.1v33.6h-.4Z" style="fill:#fff"/><path d="M116.2,124v39.5l4.2,1.3v.2H108.2v-.2l4.2-1.3V124l-4.2-1.3v-.2h12.2v.2Z" style="fill:#fff"/><path d="M145.1,134.3H145l-4-8-.8-1.3-.7-.9-1.1-.5H131v18.8h5.4a4.1,4.1,0,0,0,2.7-.7,8,8,0,0,0,1.9-2.1l1.3-2.8h.1V149h-.1l-1.3-2.8a7.8,7.8,0,0,0-1.9-2.1,4.5,4.5,0,0,0-2.7-.7H131v16.8a7.5,7.5,0,0,0,.5,2.6,2.3,2.3,0,0,0,2.3,1.2h3.8a3,3,0,0,0,2.4-.9,5.6,5.6,0,0,0,1.3-2.3l4.3-9.9h.3l-2,14.6L140,165H123v-.2l4.2-1.9V124.6l-4.2-1.9v-.2h16.6l3.9-.5Z" style="fill:#fff"/><path d="M154.6,127.1h-.1v27.6a20.6,20.6,0,0,0,.3,3.9,6.7,6.7,0,0,0,1.1,2.7,5.5,5.5,0,0,0,2.1,1.9,24.4,24.4,0,0,0,3.5,1.5v.3H149.4v-.3a9.4,9.4,0,0,0,3.1-4.1,13.6,13.6,0,0,0,.9-5.1V124l-4.5-1.3v-.2h7.4l15.5,32.6h.2V132.8a21.5,21.5,0,0,0-.4-4,6.7,6.7,0,0,0-1-2.6,5.9,5.9,0,0,0-2.2-1.9,20.3,20.3,0,0,0-3.5-1.5v-.3h12.1v.3a10.2,10.2,0,0,0-3.1,4.1,13.6,13.6,0,0,0-.9,5.1v33.6h-.5Z" style="fill:#fff"/><path d="M226.5,150.9l-4.3,9.9a5.6,5.6,0,0,1-1.3,2.3,3,3,0,0,1-2.4.9h-3.8a2.3,2.3,0,0,1-2.3-1.2,7.5,7.5,0,0,1-.5-2.6V143.4h5.4a4.5,4.5,0,0,1,2.7.7,7.8,7.8,0,0,1,1.9,2.1l1.3,2.8h.1V136.8h-.1l-1.3,2.8a8,8,0,0,1-1.9,2.1,4.1,4.1,0,0,1-2.7.7h-5.4V123.6h7.4l1,.5a3.4,3.4,0,0,1,.8.9c.2.4.5.8.7,1.3l4.1,8h.1L224.4,122l-3.9.5h-37l-3.6-.5-1.2,15.1h.2l3.8-10.8a4.7,4.7,0,0,1,1-2,2.2,2.2,0,0,1,1.9-.7h6v39.9l-4.2,1.3v.2h12.2v-.2l-4.2-1.3V123.6h8c2.9,0,4.7,5.6,4.7,13.5h0v25.8l-4.2,1.9v.2h17l3.9.5,2-14.6Z" style="fill:#fff"/><path d="M13.3,143.9a4.8,4.8,0,0,0,2.7-.7,7,7,0,0,0,1.9-2.2l1.3-2.7h.2v12.1h-.2l-1.3-2.7a7.8,7.8,0,0,0-1.9-2.1,4.5,4.5,0,0,0-2.7-.7H8v18l5.4,1.9v.2H0v-.2l4.2-1.9V124.6L0,122.7v-.2H16.6l3.9-.5,1.7,12.3H22l-4-8-.7-1.3-.8-.9a3.1,3.1,0,0,0-1-.5H8v20.3Z" style="fill:#fff"/><path d="M113.4,45.5a20.8,20.8,0,1,1,20.7-20.8A20.8,20.8,0,0,1,113.4,45.5Zm0-40.8a20.1,20.1,0,1,0,20,20A20.1,20.1,0,0,0,113.4,4.7Z" style="fill:#fff"/><path d="M118.5,44.6h-.7V35.9c0-7.5-2.5-11.4-4.7-14a10.8,10.8,0,0,0-8.5-4A10.4,10.4,0,0,0,94.2,28.3a9.6,9.6,0,0,0,.7,4l-.7.3a11.1,11.1,0,0,1-.7-4.3,11.1,11.1,0,0,1,11.1-11.1,11.9,11.9,0,0,1,9.1,4.2c2,2.5,4.8,6.7,4.8,14.5Z" style="fill:#fff"/><path d="M113.7,21.6H113c0-10.3-.9-13.4-3.3-16.8l.6-.4C112.7,8,113.7,11.1,113.7,21.6Z" style="fill:#fff"/><path d="M113.7,21.6H113c0-8-7.6-12.9-10.8-13.6l.2-.7C105.7,8,113.7,13.2,113.7,21.6Z" style="fill:#fff"/><path d="M113.7,21.4H113c0-1.9-4.5-7.7-12.7-7.7a13.5,13.5,0,0,0-4.1.6l-.2-.7a14.9,14.9,0,0,1,4.3-.6C109.1,13,113.7,19.3,113.7,21.4Z" style="fill:#fff"/><path d="M109,44.6h-.7V35.9c0-7.8,2.7-12,4.8-14.5a11.7,11.7,0,0,1,9.1-4.2,11.1,11.1,0,0,1,11.1,11.1,11.1,11.1,0,0,1-.7,4.3l-.7-.3a9.6,9.6,0,0,0,.7-4,10.4,10.4,0,0,0-10.4-10.4,11,11,0,0,0-8.6,4c-2.1,2.6-4.6,6.5-4.6,14Z" style="fill:#fff"/><path d="M113.7,21.6H113c0-10.5,1-13.6,3.5-17.2l.5.4C114.7,8.2,113.7,11.3,113.7,21.6Z" style="fill:#fff"/><path d="M113.7,21.6H113c0-8.4,8-13.6,11.4-14.3V8C121.4,8.7,113.7,13.6,113.7,21.6Z" style="fill:#fff"/><path d="M113.7,21.4H113c0-2.1,4.6-8.4,13.4-8.4a15.6,15.6,0,0,1,4.4.6l-.2.7a14.2,14.2,0,0,0-4.2-.6C118.2,13.7,113.7,19.5,113.7,21.4Z" style="fill:#fff"/><path d="M113.4,49.5a24.8,24.8,0,1,1,24.7-24.8A24.8,24.8,0,0,1,113.4,49.5Zm0-48.1a23.4,23.4,0,1,0,23.3,23.3A23.4,23.4,0,0,0,113.4,1.4Z" style="fill:#fff"/><path d="M118.5,44.6h-.7c0-1.5-2.5-2.2-4.8-3s-4.7-1.5-4.7-3h.7c0,1,2.1,1.7,4.2,2.4S118.5,42.6,118.5,44.6Z" style="fill:#fff"/><path d="M118.5,39.6h-.7c0-1.4-2.4-2.2-4.8-2.9s-4.6-1.5-4.6-3.1h.7c0,1.1,2.1,1.8,4.1,2.4S118.5,37.7,118.5,39.6Z" style="fill:#fff"/><path d="M118.4,34.7h-.6c0-1.5-2.2-2.2-4.3-3s-4.2-1.5-4.2-3h.6c0,1.1,2,1.7,3.8,2.4S118.4,32.7,118.4,34.7Z" style="fill:#fff"/><path d="M117.1,29.8c-.3-1.4-1.6-2.2-2.9-2.9s-2.7-1.6-2.7-3.2h.7c0,1.2,1.1,1.9,2.4,2.6s2.8,1.6,3.2,3.3Z" style="fill:#fff"/><path d="M109,44.6h-.7c0-2,2.7-2.8,5.3-3.6s4.2-1.4,4.2-2.4h.7c0,1.5-2.3,2.3-4.7,3S109,43.1,109,44.6Z" style="fill:#fff"/><path d="M109,39.6h-.7c0-1.9,2.7-2.8,5.2-3.6s4.2-1.3,4.2-2.4h.7c0,1.6-2.3,2.3-4.7,3.1S109,38.2,109,39.6Z" style="fill:#fff"/><path d="M109,34.7h-.7c0-2,2.4-2.8,4.8-3.6s3.7-1.3,3.7-2.4h.7c0,1.5-2,2.3-4.2,3S109,33.2,109,34.7Z" style="fill:#fff"/><path d="M109.6,29.8l-.6-.2c.4-1.7,1.9-2.5,3.2-3.3s2.4-1.4,2.4-2.6h.7c0,1.6-1.4,2.4-2.7,3.2S110,28.4,109.6,29.8Z" style="fill:#fff"/><path d="M58.5,187.5l-1.7-2.7H54.7v2.7h-1v-7.2h2.8c1.8,0,2.8.8,2.8,2.2a2.6,2.6,0,0,1-.5,1.5,1.5,1.5,0,0,1-.8.5h-.2l1.9,2.9Zm-3.8-3.6h1.8c1.2,0,1.8-.5,1.8-1.4s-.6-1.4-1.8-1.4H54.7Z" style="fill:#fff"/><path d="M66.4,187.5v-7.2h5.5v.8H67.4v2.2h3.8v.9H67.4v2.4h4.5v.9Z" style="fill:#fff"/><path d="M82.6,184.5l-2-.4-.9-.3a1.1,1.1,0,0,1-.7-.6,1.7,1.7,0,0,1-.3-1,1.6,1.6,0,0,1,.8-1.5,3,3,0,0,1,2-.5,3.9,3.9,0,0,1,2,.5,1.9,1.9,0,0,1,.8,1.6v.2h-1v-.2q0-1.2-1.8-1.2c-1.2,0-1.8.3-1.8,1.1s.4.8.9,1l2,.4a2.5,2.5,0,0,1,1.6.9,1.7,1.7,0,0,1,.3,1,1.6,1.6,0,0,1-.8,1.5,4.3,4.3,0,0,1-4.4,0,1.8,1.8,0,0,1-.8-1.5v-.4h1v.4c0,.8.6,1.2,2,1.2s2-.4,2-1.2S83.1,184.7,82.6,184.5Z" style="fill:#fff"/><path d="M90.7,181.1v-.8h6.1v.8H94.2v6.4h-.9v-6.4Z" style="fill:#fff"/><path d="M106,180.3l3,7.2h-1.1l-.6-1.6h-3.8l-.7,1.6h-1l2.9-7.2Zm.9,4.7-1.5-3.9h-.1l-1.5,3.9Z" style="fill:#fff"/><path d="M116.2,180.3V185a1.5,1.5,0,0,0,.7,1.3,3,3,0,0,0,3,0,1.6,1.6,0,0,0,.6-1.3v-4.7h1V185a2.2,2.2,0,0,1-.9,1.9,3.2,3.2,0,0,1-2.2.7,3.1,3.1,0,0,1-2.2-.7,2.2,2.2,0,0,1-.9-1.9v-4.7Z" style="fill:#fff"/><path d="M133.4,187.5l-1.7-2.7h-2.1v2.7h-1v-7.2h2.8c1.8,0,2.8.8,2.8,2.2a2.6,2.6,0,0,1-.5,1.5,1.5,1.5,0,0,1-.8.5h-.2l1.9,2.9Zm-3.8-3.6h1.8c1.2,0,1.8-.5,1.8-1.4s-.6-1.4-1.8-1.4h-1.8Z" style="fill:#fff"/><path d="M144.8,180.3l2.9,7.2h-1l-.6-1.6h-3.9l-.6,1.6h-1l2.9-7.2Zm.9,4.7-1.5-3.9h-.1l-1.5,3.9Z" style="fill:#fff"/><path d="M159,187.5l-3.8-6.1h-.1v6.1h-.9v-7.2h1.4l3.9,6.1h0v-6.1h1v7.2Z" style="fill:#fff"/><path d="M166.9,181.1v-.8h6.2v.8h-2.6v6.4h-1v-6.4Z" style="fill:#fff"/></g></g></svg>